<svg width="99" height="45" viewBox="0 0 99 45" fill="none" xmlns="http://www.w3.org/2000/svg">
<path d="M7.224 0.831998V28.816H20.52L19.8 34H0.888V0.831998H7.224ZM34.1265 7.888C37.8705 7.888 40.7825 9.088 42.8625 11.488C44.9745 13.856 46.0305 17.12 46.0305 21.28C46.0305 23.936 45.5505 26.288 44.5905 28.336C43.6305 30.352 42.2545 31.92 40.4625 33.04C38.6705 34.16 36.5425 34.72 34.0785 34.72C30.3345 34.72 27.4065 33.536 25.2945 31.168C23.1825 28.768 22.1265 25.472 22.1265 21.28C22.1265 18.624 22.6065 16.288 23.5665 14.272C24.5265 12.256 25.9025 10.688 27.6945 9.568C29.5185 8.448 31.6625 7.888 34.1265 7.888ZM34.1265 12.544C30.4465 12.544 28.6065 15.456 28.6065 21.28C28.6065 24.288 29.0545 26.512 29.9505 27.952C30.8785 29.36 32.2545 30.064 34.0785 30.064C35.9025 30.064 37.2625 29.344 38.1585 27.904C39.0865 26.464 39.5505 24.256 39.5505 21.28C39.5505 18.304 39.0865 16.112 38.1585 14.704C37.2625 13.264 35.9185 12.544 34.1265 12.544ZM73.8698 9.952C72.2378 10.528 69.7898 10.816 66.5258 10.816C68.0938 11.52 69.2458 12.4 69.9818 13.456C70.7498 14.48 71.1338 15.776 71.1338 17.344C71.1338 19.008 70.7178 20.48 69.8858 21.76C69.0858 23.04 67.9018 24.048 66.3338 24.784C64.7978 25.52 62.9898 25.888 60.9098 25.888C59.7578 25.888 58.7498 25.76 57.8858 25.504C57.1818 25.984 56.8298 26.608 56.8298 27.376C56.8298 28.56 57.8538 29.152 59.9018 29.152H63.7898C65.6458 29.152 67.2618 29.456 68.6378 30.064C70.0458 30.672 71.1338 31.536 71.9018 32.656C72.6698 33.744 73.0538 34.976 73.0538 36.352C73.0538 38.912 71.9658 40.896 69.7898 42.304C67.6138 43.744 64.4778 44.464 60.3818 44.464C57.4378 44.464 55.1178 44.16 53.4218 43.552C51.7578 42.944 50.5738 42.064 49.8698 40.912C49.1658 39.76 48.8138 38.288 48.8138 36.496H54.3338C54.3338 37.392 54.4938 38.096 54.8138 38.608C55.1658 39.12 55.7738 39.504 56.6378 39.76C57.5338 40.016 58.8138 40.144 60.4778 40.144C62.8138 40.144 64.4618 39.856 65.4218 39.28C66.3818 38.704 66.8618 37.872 66.8618 36.784C66.8618 35.824 66.4938 35.072 65.7578 34.528C65.0218 34.016 63.9498 33.76 62.5418 33.76H58.7018C56.3018 33.76 54.4938 33.296 53.2778 32.368C52.0618 31.44 51.4538 30.272 51.4538 28.864C51.4538 27.968 51.7098 27.104 52.2218 26.272C52.7658 25.44 53.5018 24.736 54.4297 24.16C52.8938 23.36 51.7578 22.384 51.0218 21.232C50.3178 20.048 49.9658 18.64 49.9658 17.008C49.9658 15.184 50.4138 13.584 51.3098 12.208C52.2058 10.832 53.4378 9.776 55.0058 9.04C56.6058 8.272 58.4298 7.888 60.4778 7.888C63.1658 7.952 65.3258 7.76 66.9578 7.312C68.6218 6.832 70.4138 6.08 72.3337 5.056L73.8698 9.952ZM60.5738 12.064C59.1978 12.064 58.1098 12.512 57.3098 13.408C56.5418 14.272 56.1578 15.44 56.1578 16.912C56.1578 18.448 56.5578 19.664 57.3578 20.56C58.1578 21.456 59.2618 21.904 60.6698 21.904C62.1418 21.904 63.2618 21.472 64.0298 20.608C64.7978 19.712 65.1818 18.464 65.1818 16.864C65.1818 13.664 63.6458 12.064 60.5738 12.064ZM87.0484 7.888C90.7924 7.888 93.7044 9.088 95.7844 11.488C97.8964 13.856 98.9524 17.12 98.9524 21.28C98.9524 23.936 98.4724 26.288 97.5124 28.336C96.5524 30.352 95.1764 31.92 93.3844 33.04C91.5924 34.16 89.4644 34.72 87.0004 34.72C83.2564 34.72 80.3284 33.536 78.2164 31.168C76.1044 28.768 75.0484 25.472 75.0484 21.28C75.0484 18.624 75.5284 16.288 76.4884 14.272C77.4484 12.256 78.8244 10.688 80.6164 9.568C82.4404 8.448 84.5844 7.888 87.0484 7.888ZM87.0484 12.544C83.3684 12.544 81.5284 15.456 81.5284 21.28C81.5284 24.288 81.9764 26.512 82.8724 27.952C83.8004 29.36 85.1764 30.064 87.0004 30.064C88.8244 30.064 90.1844 29.344 91.0804 27.904C92.0084 26.464 92.4724 24.256 92.4724 21.28C92.4724 18.304 92.0084 16.112 91.0804 14.704C90.1844 13.264 88.8404 12.544 87.0484 12.544Z" fill="black"/>
</svg>
